<svg width="68" height="45" viewBox="0 0 68 45" fill="none" xmlns="http://www.w3.org/2000/svg">
<path d="M27.1975 0V6.79938H13.5988V13.5988H6.79938V20.3981H1.52986C0.87117 20.3981 0.329345 20.855 0.212481 21.503C0.201857 21.5508 0 22.6876 0 24.1378C0 25.0886 0.0903043 26.1245 0.254977 27.155C1.8114 26.7832 4.66395 26.2254 4.16462 24.3928C6.84718 27.5003 13.2853 26.5601 14.9161 25.0302C16.7382 27.6703 27.3516 26.661 28.0899 24.6052C30.3741 27.2825 37.455 27.2825 39.7339 24.6052C40.4722 26.661 51.0431 27.6703 52.8652 25.0302C53.4442 25.572 54.65 26.0236 56.0524 26.2626C56.5251 25.3649 56.9607 24.4618 57.3697 23.5003C66.0071 23.3941 67.8716 17.1844 67.9513 16.9135C68.1 16.3929 67.8981 15.8564 67.4838 15.5111C67.3404 15.3889 64.1532 12.802 58.9846 13.6837C57.5344 8.96137 53.8001 6.81 53.6301 6.71438C53.1414 6.43816 52.5358 6.48066 52.1002 6.84187C51.9621 6.95342 48.7483 9.67849 49.253 15.2561C49.3805 16.6585 49.747 17.8962 50.3154 18.9958C49.1999 19.6173 47.2822 20.3981 44.1959 20.3981H43.516V13.5988H36.7166V0H27.1975ZM56.0524 26.2626C55.8877 26.5813 55.6752 26.8894 55.4999 27.1975H67.7813C66.3046 26.8257 63.1333 26.3263 63.6592 24.3928C61.9221 26.4007 58.6234 26.6982 56.0524 26.2626ZM55.4999 27.1975H0.254977C0.584322 29.1948 1.26426 31.2878 2.29479 33.3169C9.67849 35.054 17.4287 32.4086 17.5084 32.382C18.2202 32.1324 18.9639 32.5255 19.2082 33.232C19.4579 33.9384 19.1073 34.7299 18.4008 34.9743C18.1405 35.0646 13.4713 36.6316 7.73429 36.6316C6.59752 36.6316 5.40232 36.5679 4.20711 36.4192C7.77679 41.1522 13.8272 44.8759 23.1179 44.8759C37.8109 44.8759 49.1096 38.6343 55.4999 27.1975ZM0.254977 27.1975C0.249665 27.1763 0.260288 27.1763 0.254977 27.155C0.164673 27.1763 0.0796803 27.1763 0 27.1975H0.254977ZM29.9173 2.71975H33.9969V6.79938H29.9173V2.71975ZM16.3185 9.51913H20.3981V13.5988H16.3185V9.51913ZM23.1179 9.51913H27.1975V13.5988H23.1179V9.51913ZM29.9173 9.51913H33.9969V13.5988H29.9173V9.51913ZM9.51913 16.3185H13.5988V20.3981H9.51913V16.3185ZM16.3185 16.3185H20.3981V20.3981H16.3185V16.3185ZM23.1179 16.3185H27.1975V20.3981H23.1179V16.3185ZM29.9173 16.3185H33.9969V20.3981H29.9173V16.3185ZM36.7166 16.3185H40.7963V20.3981H36.7166V16.3185ZM21.758 29.9173C21.9333 29.9173 22.1139 29.9438 22.268 30.0022C22.1033 30.0979 21.9705 30.2625 21.9705 30.4697C21.9705 30.7778 22.2148 31.0647 22.5229 31.0647C22.7301 31.0647 22.9373 30.9372 23.0329 30.7672C23.1019 30.9265 23.1179 31.0912 23.1179 31.2771C23.1179 32.0261 22.507 32.637 21.758 32.637C21.009 32.637 20.3981 32.0261 20.3981 31.2771C20.3981 30.5281 21.009 29.9173 21.758 29.9173Z" fill="#242424" fill-opacity="0.4"/>
</svg>
