<svg width="68" height="68" viewBox="0 0 68 68" fill="none" xmlns="http://www.w3.org/2000/svg">
<path d="M66.2157 29.698L38.302 1.78431C37.1182 0.594769 35.5591 0 34 0C32.4409 0 30.8818 0.594769 29.698 1.78431L24.1777 7.30469L31.0088 14.1359C33.2782 12.802 36.2347 13.0907 38.1807 15.0367C40.1267 16.9827 40.4096 19.9392 39.0757 22.2028L45.7914 28.9185C48.0608 27.5846 51.0173 27.8733 52.9633 29.8193C55.2731 32.1291 55.2731 35.8709 52.9633 38.1807C50.6535 40.4905 46.9117 40.4905 44.6019 38.1807C42.6559 36.2347 42.3672 33.2782 43.7011 31.0088L36.9854 24.2931C36.5061 24.5761 36.0037 24.784 35.4783 24.9168V43.0774C38.0248 43.7357 39.913 46.0282 39.913 48.7826C39.913 52.051 37.2683 54.6957 34 54.6957C30.7317 54.6957 28.087 52.051 28.087 48.7826C28.087 46.0282 29.9752 43.7357 32.5217 43.0774V24.9168C31.5343 24.6627 30.5931 24.1719 29.8193 23.3981C27.8733 21.4521 27.5904 18.4956 28.9243 16.232L22.0873 9.39504L1.78431 29.698C-0.594769 32.0713 -0.594769 35.9287 1.78431 38.302L29.698 66.2157C30.8818 67.4052 32.4409 68 34 68C35.5591 68 37.1182 67.4052 38.302 66.2157L66.2157 38.302C68.5948 35.9287 68.5948 32.0713 66.2157 29.698Z" fill="#242424" fill-opacity="0.4"/>
</svg>
