<svg width="61" height="68" viewBox="0 0 61 68" fill="none" xmlns="http://www.w3.org/2000/svg">
<path d="M60.6102 0.47928C60.3317 0.173234 59.9314 0 59.5137 0H1.48633C1.06862 0 0.668309 0.173234 0.389833 0.47928C0.105555 0.785326 -0.0336827 1.19531 0.00692872 1.61107L5.23415 59.8927C5.28636 60.5048 5.71568 61.0129 6.30744 61.1861L30.0881 67.9423C30.2157 67.9827 30.355 68 30.4942 68C30.6334 68 30.7669 67.9827 30.9003 67.9423L54.6984 61.1861C55.2901 61.0129 55.7136 60.5048 55.7717 59.8927L60.9931 1.61107C61.0337 1.19531 60.8944 0.785326 60.6102 0.47928ZM48.0962 20.5744H20.1558L20.823 28.0985H47.4232L45.4274 50.3359L30.4884 54.8285L30.3434 54.7823L15.5784 50.3302L14.7719 41.27H22.0065L22.3198 44.7867L30.5754 46.5075L38.6802 44.7867L39.5447 35.2704H14.2324L12.2657 13.3852H48.7401L48.0962 20.5744Z" fill="#242424" fill-opacity="0.4"/>
</svg>
