<svg width="68" height="68" viewBox="0 0 68 68" fill="none" xmlns="http://www.w3.org/2000/svg">
<path d="M63.6868 0H4.31957C1.93527 0 0 1.93527 0 4.31957V63.6804C0 66.0647 1.93527 68 4.31957 68H63.6804C66.0647 68 68 66.0647 68 63.6868V4.31957C68 1.93527 66.0647 0 63.6868 0ZM37.2381 52.1068C37.2381 58.5766 33.4435 61.5238 27.9033 61.5238C22.8943 61.5238 19.2831 58.1656 17.8095 55.0476L22.9007 51.9676C23.881 53.7068 25.3735 55.0476 27.5238 55.0476C29.5792 55.0476 30.7619 54.2444 30.7619 51.1202V30.7619H37.2381V52.1068ZM51.2846 61.5238C45.5484 61.5238 42.2913 58.6336 40.4762 55.0476L45.3333 51.8095C46.6551 53.9725 48.0971 56.0406 51.1455 56.0406C53.7068 56.0406 55.0476 54.763 55.0476 52.9922C55.0476 50.8798 53.6562 50.1272 50.8419 48.894L49.2987 48.2299C44.84 46.3326 41.8739 43.9546 41.8739 38.9204C41.8739 34.2909 45.4092 30.7619 50.9241 30.7619C54.8516 30.7619 57.6722 32.128 59.7087 35.7076L54.9022 38.8002C53.8397 36.8966 52.7013 36.1503 50.9241 36.1503C49.1153 36.1503 47.9706 37.3013 47.9706 38.8002C47.9706 40.6533 49.1153 41.3996 51.7653 42.5506L53.3084 43.2147C58.564 45.4598 61.5238 47.7556 61.5238 52.9163C61.5238 58.4754 57.1536 61.5238 51.2846 61.5238Z" fill="#242424" fill-opacity="0.4"/>
</svg>
