<svg width="68" height="68" viewBox="0 0 68 68" fill="none" xmlns="http://www.w3.org/2000/svg">
<path d="M30.7121 0.14949C28.7244 0.353737 27.195 0.622749 25.4564 1.07608C18.0935 2.98407 11.423 7.45762 6.82987 13.5701C3.45229 18.0636 1.25537 23.2247 0.403498 28.6945C0.074707 30.7868 0.074707 30.7719 0.074707 33.9502C0.074707 37.0389 0.0796887 37.0986 0.328773 38.8572C1.43969 46.5987 5.1909 53.7076 10.9846 59.048C15.1692 62.9038 20.2754 65.6636 25.7304 67.0236C27.1801 67.3823 29.2773 67.751 30.7669 67.8954C31.5938 67.9801 34.6376 68.015 36.0425 67.9602C39.2457 67.8307 43.0019 67.0236 46.2798 65.7583C47.7594 65.1904 49.9663 64.1492 50.0809 63.9649C50.1157 63.9051 49.9414 63.646 49.3585 62.8689C48.4768 61.7032 45.9012 58.231 41.9159 52.8507C39.3453 49.3785 38.9319 48.7907 35.5144 43.7343C31.2302 37.3926 27.459 31.833 26.3332 30.189L25.5311 29.0233L25.4962 29.2674C25.4763 29.4069 25.4415 33.8655 25.4215 39.181L25.3817 48.8455L25.2422 49.1344C24.9483 49.7272 24.6842 49.8169 23.2146 49.8169H22.1386L21.9144 49.6774C21.7949 49.5977 21.6305 49.4632 21.5557 49.3685C21.2519 49.0049 21.2718 50.0959 21.2718 35.5444V22.2333L21.4212 22.044C21.6105 21.8049 21.9443 21.5508 22.1635 21.4761C22.2681 21.4412 22.7613 21.4213 23.4886 21.4213C24.749 21.4213 25.023 21.4611 25.302 21.7003C25.5062 21.8696 26.5623 23.4588 41.3629 45.8814C45.966 52.8557 50.325 59.4564 51.0473 60.5524C51.7746 61.6484 52.3824 62.565 52.4073 62.5899C52.4322 62.6148 52.7311 62.4405 53.0898 62.1914C59.3817 57.8623 64.0146 51.7099 66.3461 44.5861C66.8193 43.1414 67.0535 42.2497 67.3823 40.6307C67.5865 39.6194 67.8256 37.9704 67.8954 37.1136C68.0398 35.2953 67.99 31.4494 67.8007 30.0147C67.2228 25.566 66.0521 21.8248 64.0744 18.1085C61.8277 13.879 58.759 10.2175 54.938 7.20854C51.391 4.41879 47.1068 2.28165 42.7379 1.1259C40.5708 0.553009 38.1995 0.1744 36.3414 0.0996704C34.4384 0.0249481 31.6935 0.0448761 30.7121 0.14949ZM45.7368 20.6342C46.0009 20.7886 46.2101 21.0178 46.3247 21.2718C46.3894 21.4263 46.3994 22.3479 46.4143 29.4169C46.4243 33.8008 46.4143 39.2009 46.3944 41.4227L46.3546 45.4529L45.2337 43.7392C44.6209 42.7927 43.6844 41.358 43.1513 40.551L42.1899 39.0814L42.2048 30.2638L42.2198 21.4462L42.3692 21.1772C42.4489 21.0327 42.5934 20.8484 42.693 20.7687C43.0019 20.5096 43.2012 20.4748 44.4117 20.4897C45.5077 20.4997 45.5077 20.4997 45.7368 20.6342Z" fill="#242424" fill-opacity="0.4"/>
<path d="M52.1236 62.7694C51.9542 62.869 51.8895 62.9587 52.0489 62.874C52.1634 62.8092 52.3378 62.6747 52.3079 62.6697C52.293 62.6697 52.2083 62.7146 52.1236 62.7694Z" fill="#242424" fill-opacity="0.3"/>
<path d="M51.6901 63.0432C51.6353 63.083 51.6153 63.1179 51.6452 63.1179C51.6751 63.1179 51.7249 63.083 51.7598 63.0432C51.8395 62.9485 51.8146 62.9485 51.6901 63.0432Z" fill="#242424" fill-opacity="0.3"/>
<path d="M51.3609 63.2425C51.3061 63.3073 51.3111 63.3123 51.3809 63.2874C51.4257 63.2724 51.4606 63.2376 51.4606 63.2127C51.4606 63.1479 51.4307 63.1579 51.3609 63.2425Z" fill="#242424" fill-opacity="0.3"/>
<path d="M50.9874 63.4668C50.9724 63.4967 50.9924 63.5017 51.0322 63.4867C51.1219 63.4518 51.1368 63.417 51.0671 63.417C51.0372 63.417 51.0023 63.4369 50.9874 63.4668Z" fill="#242424" fill-opacity="0.3"/>
<path d="M50.4397 63.7656C50.36 63.8204 50.3102 63.8652 50.3301 63.8652C50.3849 63.8652 50.6639 63.7208 50.6639 63.6909C50.6639 63.6411 50.5841 63.6709 50.4397 63.7656Z" fill="#242424" fill-opacity="0.3"/>
</svg>
