<svg width="60" height="68" viewBox="0 0 60 68" fill="none" xmlns="http://www.w3.org/2000/svg">
<path d="M29.0245 0.635735C28.7066 0.694862 28.2558 0.813126 28.0266 0.90921C27.7901 1.0053 25.5727 2.26183 23.0893 3.69574C15.5501 8.05661 15.2914 8.20443 14.0349 8.92878C9.93273 11.2792 2.79273 15.4257 2.52665 15.6031C1.72838 16.1501 0.937514 17.2144 0.604906 18.2123L0.397949 18.811V33.9631C0.397949 48.5831 0.405341 49.1301 0.538384 49.5588C0.863601 50.6084 1.53621 51.5988 2.3123 52.1827C2.88143 52.6114 8.97186 56.1223 10.0066 56.6175C11.7436 57.4527 12.8966 57.7779 14.338 57.8518C16.0084 57.9331 17.5162 57.6523 18.7506 57.0314C20.4062 56.1962 21.4336 54.8214 22.0027 52.6631L22.1949 51.924L22.2171 37.0305C22.2319 28.841 22.2245 22.0631 22.2023 21.9744C22.1801 21.8783 22.0766 21.7453 21.9658 21.6788C21.7884 21.5605 21.5519 21.5457 20.1327 21.531C19.2384 21.5236 18.3884 21.5531 18.2406 21.5901C17.6862 21.7305 17.7306 20.4001 17.7306 36.2101C17.7306 46.3583 17.7084 50.5123 17.6493 50.7931C17.1762 53.0401 14.9071 53.9492 12.3719 52.907C11.8471 52.6927 5.12099 48.8344 4.90665 48.6275C4.75882 48.487 4.75882 48.3762 4.73665 34.037L4.72186 19.587L4.92143 19.3727C5.03969 19.247 7.78925 17.6136 11.0414 15.7362C14.2936 13.8588 17.5014 12.0036 18.174 11.6192C18.8466 11.2349 20.1253 10.4957 21.0197 9.97834C22.8601 8.92139 23.5919 8.49269 27.1914 6.40834C29.1797 5.24791 29.8006 4.93008 30.0001 4.93008C30.1627 4.92269 30.4214 5.01878 30.7023 5.18878C31.1458 5.45487 36.3271 8.44835 40.2001 10.6805C41.3162 11.3236 43.4819 12.5727 45.0045 13.4523C46.5271 14.3318 49.321 15.9431 51.2132 17.0297C55.1823 19.3136 55.101 19.2692 55.2045 19.5131C55.2562 19.6388 55.271 24.3101 55.2636 34.0814C55.2414 47.9327 55.234 48.4797 55.1084 48.6201C54.9901 48.7457 53.7927 49.4701 52.4401 50.224C52.2332 50.3349 51.9006 50.527 51.701 50.6527C51.494 50.771 51.2132 50.9336 51.0875 51.0075C50.9545 51.0814 48.9884 52.2123 46.7267 53.5205C44.4575 54.8362 40.3553 57.2014 37.6132 58.7831C34.871 60.3649 32.0845 61.9762 31.4266 62.3531C30.1258 63.1144 29.9336 63.1662 29.4827 62.8853C29.1649 62.6931 25.181 60.3353 23.9984 59.6405C23.5253 59.3597 23.0671 59.1305 22.9784 59.1305C22.8823 59.1305 22.5719 59.2636 22.2836 59.4188C21.1527 60.0397 20.7093 60.2466 19.6745 60.6236C19.0462 60.8527 18.5732 61.067 18.5362 61.141C18.4106 61.3775 18.891 61.747 20.798 62.8705C21.818 63.4692 22.9932 64.164 23.4219 64.4153C28.1523 67.2092 28.1153 67.187 29.0836 67.3792C29.7858 67.5123 30.2145 67.5123 30.9019 67.3792C31.6188 67.2388 32.0993 67.054 32.9123 66.5884C33.7549 66.1005 43.2971 60.594 44.3023 60.0175C44.9971 59.611 50.5775 56.3884 53.3197 54.8066C54.0145 54.4075 55.1601 53.7497 55.8697 53.3431C56.5793 52.9366 57.3627 52.4562 57.6067 52.2714C58.5232 51.584 59.2253 50.527 59.5432 49.374C59.6688 48.9231 59.6762 48.0805 59.6762 34.0001C59.6762 19.6536 59.6688 19.0844 59.5358 18.5892C59.2327 17.451 58.4862 16.3275 57.614 15.714C57.3701 15.5366 56.7123 15.1301 56.1653 14.8196C55.6184 14.5018 52.8097 12.8831 49.9197 11.2127C30.5914 0.0370407 32.3875 1.07182 31.9071 0.879646C31.4266 0.694862 30.4658 0.517471 29.9632 0.524864C29.7636 0.524864 29.3349 0.576607 29.0245 0.635735Z" fill="#242424" fill-opacity="0.4"/>
<path d="M35.4328 20.8509C29.3128 21.117 25.6393 23.8813 25.4398 28.3531C25.3215 31.0657 26.2824 33.0096 28.352 34.2365C30.0593 35.2491 32.528 35.8626 36.4676 36.2544C41.5233 36.757 43.9624 37.4591 44.6572 38.5974C44.8272 38.8709 44.8789 39.0557 44.9085 39.5213C45.0267 41.3396 44.1472 42.5222 42.1959 43.1578C40.422 43.727 36.4233 43.8526 33.8585 43.4165C32.9493 43.2687 31.8333 42.8991 31.2937 42.5665C30.695 42.2117 30.0593 41.5022 29.7489 40.8591C29.505 40.3344 29.1872 39.2109 29.1872 38.8561C29.1872 38.6417 28.8989 38.3091 28.655 38.25C28.5589 38.2278 27.6867 38.2131 26.7185 38.2278L24.9593 38.25L24.7746 38.4717C24.5898 38.6787 24.5898 38.7009 24.6267 39.5435C24.6933 40.8517 24.9002 41.687 25.4546 42.8326C26.652 45.3161 29.2315 46.9496 33.0306 47.6296C34.472 47.8809 35.1002 47.9252 37.3915 47.9326C38.9363 47.9326 39.9785 47.8957 40.4959 47.8291C46.372 47.0752 49.5576 44.37 49.7867 39.95C49.9124 37.4517 49.1067 35.5374 47.4141 34.34C45.7067 33.1278 43.408 32.507 37.872 31.7457C34.095 31.2283 32.432 30.8735 31.4046 30.3561C30.8724 30.09 30.7467 29.9939 30.562 29.6909C30.3772 29.3878 30.3402 29.24 30.3106 28.7226C30.222 27.0744 31.1237 26.0174 33.0454 25.5074C34.1541 25.2117 34.6346 25.1674 36.7633 25.1674C38.8772 25.1674 39.2985 25.2117 40.5328 25.5074C42.462 25.9731 43.6593 27.2222 44.162 29.2696C44.258 29.6687 44.3393 29.8387 44.502 29.9717L44.7237 30.1565H46.4828C47.4511 30.1565 48.3307 30.127 48.4341 30.0826C48.7298 29.9717 48.8628 29.6244 48.8111 29.1365C48.5598 26.8452 47.8428 25.1822 46.5346 23.8222C44.428 21.6417 40.6511 20.6291 35.4328 20.8509Z" fill="#242424" fill-opacity="0.4"/>
</svg>
