<svg width="64" height="68" viewBox="0 0 64 68" fill="none" xmlns="http://www.w3.org/2000/svg">
<path d="M47.174 0C44.8869 0 42.9036 0.452658 41.0751 0.911272C44.2794 2.28116 46.2628 3.96076 47.3289 4.72313C49.7709 6.85539 51.1407 8.99361 53.5827 12.5017C54.0354 13.2641 54.7977 14.3302 55.2564 16.0039C55.715 17.5286 55.715 18.7496 55.715 19.9706C55.715 21.6502 55.5601 23.0201 55.4053 24.3899C55.2564 25.462 55.2564 25.9206 55.1075 26.2244C55.1075 26.3793 55.1075 26.5282 54.9526 26.8319C54.9526 27.5943 54.9526 27.904 55.1075 28.5115C55.1075 29.119 55.2564 29.7325 55.2564 30.7986C55.4112 32.782 55.4112 34.1519 55.1075 35.8255V36.439C54.7977 37.8089 54.494 39.1847 53.7316 40.3998C53.8865 40.7095 54.0354 40.8584 54.1902 41.1621C54.9526 40.096 55.5601 39.0299 56.1676 37.8148C58.0021 34.4556 59.0682 31.561 59.8306 29.4287C61.2005 25.462 61.9629 22.5614 62.4215 20.4292C63.4876 15.855 63.6425 13.7227 63.1838 11.2807C63.1838 10.5183 62.8801 9.14251 62.1177 7.77262C60.4381 4.72313 57.8472 3.35324 56.0187 2.43602C54.7977 1.8285 51.5934 0.1489 47.174 0ZM14.1419 0.673031C12.3849 0.637294 10.2407 0.833844 7.83445 1.9774C7.07208 2.28712 4.78496 3.35324 2.95646 5.78926C1.73548 7.31401 0.824202 9.60112 0.365588 12.192C-0.0930255 14.4791 -0.247883 17.2308 0.669347 22.4125C1.27686 26.0695 1.89033 28.5115 3.11132 33.5384C3.26618 34.1519 4.17745 36.8976 6.16081 42.9966L6.30971 43.3003C6.61942 44.3665 7.53069 46.6536 9.51405 48.9407C10.8839 50.4654 12.1049 51.3827 13.177 51.3827H13.4748C15.4582 51.3827 16.834 49.8579 18.049 48.6369C18.049 48.4821 20.9496 44.9799 22.0158 43.759C21.8609 43.6041 21.5631 43.6041 21.4082 43.4492C19.5797 42.3831 18.2039 40.7095 17.1378 38.875C15.3093 35.5218 15.4582 32.1685 15.7619 30.4889L15.9168 27.904C15.3093 23.7824 15.4641 19.8217 16.2265 15.855C16.834 12.5017 17.5964 9.14846 20.3362 5.64036C21.2534 4.41937 22.3195 3.35324 23.3856 2.59087C20.9496 1.52474 18.3588 0.911272 15.7619 0.762372C15.2676 0.720679 14.7256 0.684942 14.1419 0.673031ZM33.2965 1.9774C32.5341 1.9774 31.7717 1.9774 31.0094 2.13226C27.9599 2.73977 25.0652 4.41937 22.7781 7.31401C20.491 10.2146 19.8835 12.9544 19.276 16.1587C18.9663 17.3797 18.9663 18.4458 18.8114 19.6668C19.7286 18.9044 20.9496 17.9872 22.7781 17.5286C23.8443 17.2248 26.59 16.3136 28.8771 17.6835C29.6395 18.1421 30.7056 19.0593 31.7717 21.6502C34.0589 28.0529 31.7777 34.6105 31.4739 35.218C31.3191 35.8255 31.0153 36.2841 30.8605 36.5879C30.5567 37.3503 30.253 37.9637 29.9492 39.1847C29.7943 40.2509 29.6395 41.1681 29.6395 42.2342C30.0981 42.2342 30.5567 42.3831 31.0094 42.6869C31.7717 43.4492 31.9266 44.5213 32.0815 44.974C32.3852 47.416 32.3852 50.4654 32.3852 53.5149C32.3852 55.9569 32.3852 58.244 32.5341 59.7688C32.8438 63.2769 33.91 65.7129 35.4347 66.9339C36.5008 67.8511 37.8707 67.8451 38.6331 68H38.9428C41.2299 68 44.8869 66.4753 46.2568 64.343C47.0192 63.122 47.3289 62.0559 47.6326 60.5311C47.7875 59.6139 47.7815 59.1613 47.9364 58.244C47.9364 57.7854 48.0913 57.023 48.0913 56.1118C48.0913 55.3494 48.2402 54.4322 48.395 53.3601C48.5499 50.7692 49.0025 47.7257 49.1574 46.0461C49.3122 44.0627 50.2235 42.3831 50.9859 41.317C49.9198 41.1621 48.8536 40.2509 48.2461 38.7261C47.3289 37.0465 47.174 36.5879 47.0192 35.8255C46.8703 35.218 46.5665 34.4556 45.4944 32.1685C43.2073 26.9868 42.9095 25.462 42.9095 24.241C42.7547 22.5614 42.5998 20.2803 44.4343 18.7555C47.174 16.3136 50.6821 16.4684 52.5106 17.0759V16.7662C52.2069 15.5512 51.5994 14.634 51.1407 14.0265C48.8536 10.5184 47.6326 8.68985 45.4944 6.86135C44.5832 6.09898 42.296 4.26452 38.9428 3.04949C37.4181 2.59087 35.5836 1.9774 33.2965 1.9774ZM50.152 19.8574C49.0442 19.78 47.6326 19.9706 46.4117 21.0427C45.8041 21.6502 45.8041 22.8712 45.959 23.9373C45.959 24.6997 46.1079 25.7658 48.395 30.9535C49.4611 33.3895 49.7649 34.1519 49.9198 34.7654C50.0746 35.3729 50.2235 35.6766 51.1407 37.3503C51.2956 37.66 51.4445 37.9637 51.7483 38.2675C52.052 37.8089 52.2069 37.0465 52.3558 35.8255L52.5106 35.3729C52.8144 34.003 52.6655 32.9309 52.6655 31.1024C52.6655 30.1852 52.5106 29.5776 52.5106 29.119C52.3558 28.3567 52.3558 27.7491 52.3558 26.8319C52.052 26.3733 52.052 26.2244 52.2069 25.9147C52.2069 25.6109 52.3558 25.1583 52.5106 24.241C52.6655 23.0201 52.8203 21.9539 52.8203 20.7329C52.5106 20.5781 52.3617 20.4292 52.058 20.2803C52.058 20.2803 51.2539 19.9348 50.152 19.8574ZM26.3101 20.459C25.3392 20.3458 24.2254 20.6615 23.5405 20.8878C21.8609 21.3464 20.8007 22.4125 20.0384 23.0201C19.5797 23.4787 19.1211 23.9373 18.6625 24.5448C18.6625 25.6109 18.8114 26.683 18.9663 27.7491V27.904L18.6625 30.9535C18.3588 32.3234 18.2039 34.9142 19.7286 37.5051C20.491 39.0299 21.5631 40.2509 22.933 41.0132C23.8502 41.6207 25.0652 42.0794 26.4351 42.3891C26.4351 41.317 26.59 40.096 26.7448 39.0299C27.0486 37.5051 27.3524 36.7428 27.811 35.8255C27.9658 35.3729 28.1147 35.0691 28.4244 34.6105C28.5733 34.1519 30.7056 28.3567 28.7222 23.0201C28.2696 21.7991 27.811 21.0367 27.1975 20.7329C26.9354 20.5781 26.6257 20.4947 26.3101 20.459ZM48.6809 21.3285C49.08 21.3047 49.4611 21.3405 49.616 21.4953C50.0746 21.7991 49.4611 22.5614 49.3063 22.7163C49.1574 22.8712 48.8536 23.1749 48.395 23.3298C47.7875 23.4787 47.3289 23.0201 47.174 23.0201C47.0192 22.8652 46.5665 22.4125 46.7214 21.9539C46.8703 21.6502 47.0251 21.6502 47.6326 21.4953C47.859 21.4179 48.2819 21.3464 48.6809 21.3285ZM25.7621 22.5912C26.2743 22.5555 26.7032 22.752 27.0486 22.8652C27.5072 23.0201 27.9599 23.1749 27.9599 23.4787C28.1147 23.9373 27.6621 24.241 27.5072 24.3899C27.0486 24.8486 26.2862 24.8545 26.2862 24.8545C25.5239 24.8545 25.0652 24.3959 24.7615 23.9373C24.6066 23.7824 24.4577 23.4787 24.6126 23.1749C24.7615 22.8712 25.0652 22.7163 25.2201 22.7163C25.4107 22.6389 25.5894 22.6031 25.7621 22.5912ZM53.7316 42.538C52.9692 43.6041 51.9031 44.9799 51.7483 46.8084C51.7483 47.1122 51.7483 47.2671 51.5934 47.5708C52.8144 47.8746 53.8865 47.8746 54.9526 47.7257C57.3946 47.416 59.0682 46.195 59.372 45.8912C60.4381 45.1288 61.814 43.6041 61.5042 42.9966C61.3553 42.6928 60.8967 42.8417 58.4548 42.9966C57.8472 42.9966 56.0187 43.4552 54.7977 43.1514H54.494C54.1902 42.9966 53.8865 42.8417 53.7316 42.538ZM27.1975 45.5875C26.8937 46.0461 26.4411 46.3498 26.1373 46.6536C24.9163 47.416 23.3856 48.0294 21.8609 48.3332C20.491 48.7918 19.7286 48.7918 19.7286 49.2504C19.5738 49.8579 21.0985 50.6203 21.8609 50.9241C24.4577 51.9902 27.0486 51.3827 27.5072 51.2278C27.811 51.073 28.5733 50.7692 29.3357 50.3106C29.3357 48.6369 29.1868 47.1122 29.032 45.8912V45.7364H28.8771C28.4185 45.7364 27.811 45.7423 27.1975 45.5875Z" fill="#242424" fill-opacity="0.4"/>
</svg>
