<svg width="68" height="68" viewBox="0 0 68 68" fill="none" xmlns="http://www.w3.org/2000/svg">
<path d="M33.2609 0C20.4012 0 17.7391 6.64063 17.7391 10.4864V17.7391H32.5217V19.2174H10.4864C5.607 19.2174 0 23.0632 0 34C0 44.9368 5.607 48.7826 10.4864 48.7826H19.2174V39.913C19.2174 36.662 21.8794 34 25.1304 34H42.8696C45.3815 34 47.3043 32.0771 47.3043 29.5652V10.4864C47.3043 5.3125 42.4249 0 33.2609 0ZM26.6087 7.3913C28.2371 7.3913 29.5652 8.71943 29.5652 10.3478C29.5652 11.9762 28.2371 13.3043 26.6087 13.3043C24.9803 13.3043 23.6522 11.9762 23.6522 10.3478C23.6522 8.71943 24.9803 7.3913 26.6087 7.3913ZM48.7826 19.2174V29.5652C48.7826 32.8162 46.1206 35.4783 42.8696 35.4783H25.1304C22.6185 35.4783 20.6957 37.4012 20.6957 39.913V57.5136C20.6957 62.6875 25.5751 68 34.7391 68C47.5988 68 50.2609 61.3594 50.2609 57.5136V50.2609H35.4783V48.7826H57.5136C62.393 48.7826 68 44.9368 68 34C68 23.0632 62.393 19.2174 57.5136 19.2174H48.7826ZM41.3913 54.6957C43.0197 54.6957 44.3478 56.0238 44.3478 57.6522C44.3478 59.2806 43.0197 60.6087 41.3913 60.6087C39.7629 60.6087 38.4348 59.2806 38.4348 57.6522C38.4348 56.0238 39.7629 54.6957 41.3913 54.6957Z" fill="#242424" fill-opacity="0.4"/>
</svg>
