<svg width="62" height="57" viewBox="0 0 62 57" fill="none" xmlns="http://www.w3.org/2000/svg">
<path fill-rule="evenodd" clip-rule="evenodd" d="M43.8726 0.0043366C42.8222 -0.0312296 41.7226 0.153182 40.6202 0.513069C38.4154 1.23285 36.105 2.63551 33.734 4.57763C32.8048 5.33874 31.8671 6.20877 30.9263 7.13189C30.0063 6.23221 29.0879 5.38553 28.1792 4.64122C25.8101 2.70066 23.5059 1.29746 21.3061 0.57931C19.1063 -0.138836 16.9175 -0.161089 15.1198 0.884019C13.3221 1.92913 12.2471 3.84761 11.7648 6.12502C11.2825 8.40243 11.3356 11.1145 11.82 14.1508C11.9883 15.2054 12.2283 16.3119 12.5016 17.439C11.4744 17.7525 10.4768 18.0821 9.55182 18.4459C6.76018 19.5438 4.45027 20.8573 2.76819 22.4204C1.08611 23.9834 0 25.8804 0 27.9634C0 30.0464 1.08611 31.9408 2.76819 33.5038C4.45027 35.0669 6.76018 36.383 9.55182 37.4809C10.5409 37.87 11.6118 38.2202 12.7173 38.5514C12.3197 40.0475 11.9975 41.4994 11.7779 42.8756C11.2932 45.9143 11.242 48.6268 11.7253 50.9094C12.2087 53.1919 13.2843 55.1213 15.0908 56.1716C16.8974 57.2218 19.096 57.196 21.3008 56.4763C23.5056 55.7565 25.8134 54.3565 28.1845 52.4144C29.1051 51.6603 30.0364 50.8 30.9684 49.8866C31.9053 50.8055 32.8404 51.6698 33.7656 52.4276C36.1347 54.3682 38.4415 55.7687 40.6413 56.4869C42.8411 57.205 45.0299 57.2273 46.8276 56.1822C48.6253 55.1371 49.6977 53.2186 50.18 50.9412C50.6622 48.6637 50.6091 45.9543 50.1247 42.918C49.9045 41.538 49.5822 40.0814 49.1827 38.5806C50.3247 38.2413 51.4294 37.8816 52.4482 37.4809C55.2398 36.383 57.5497 35.0669 59.2318 33.5038C60.9139 31.9408 62 30.0464 62 27.9634C62 25.8804 60.9139 23.9834 59.2318 22.4204C57.5497 20.8573 55.2398 19.5438 52.4482 18.4459C51.5099 18.0769 50.497 17.743 49.4537 17.4258C49.7292 16.2917 49.9738 15.1774 50.1431 14.1164C50.6279 11.0776 50.6791 8.36256 50.1957 6.07998C49.7124 3.7974 48.6342 1.87071 46.8276 0.820428C45.9243 0.295291 44.923 0.0399028 43.8726 0.0043366ZM43.7489 2.76527C44.4081 2.78342 44.9704 2.94137 45.4514 3.22101C46.4134 3.78029 47.1245 4.86879 47.5039 6.66025C47.8832 8.45171 47.8701 10.8722 47.4223 13.6792C47.269 14.6402 47.0463 15.6588 46.7934 16.7024C44.0376 16.0346 41.0178 15.539 37.7994 15.2478C36.1837 12.9939 34.5236 10.9406 32.8498 9.11912C33.7352 8.2489 34.6148 7.43502 35.4733 6.73179C37.6636 4.93776 39.7371 3.71703 41.4675 3.15212C42.3327 2.86966 43.0898 2.74712 43.7489 2.76527ZM18.1827 2.77322C18.8456 2.75458 19.6042 2.8768 20.4719 3.16007C22.2074 3.72661 24.2845 4.9468 26.4767 6.74239C27.318 7.4315 28.1779 8.2299 29.0449 9.07938C27.3588 10.9158 25.6849 12.9869 24.0585 15.261C20.8537 15.5576 17.8462 16.0558 15.104 16.7263C14.8529 15.6884 14.6303 14.6751 14.4777 13.7189C14.0295 10.9095 14.0183 8.48867 14.3988 6.69205C14.7792 4.89542 15.4961 3.7987 16.467 3.23426C16.9525 2.95203 17.5197 2.79185 18.1827 2.77322ZM30.9684 11.0719C32.0659 12.2745 33.1636 13.5906 34.2524 15.0066C33.1826 14.9617 32.0997 14.9351 31 14.9351C29.8784 14.9351 28.7749 14.9626 27.6845 15.0093C28.7735 13.5921 29.8707 12.2755 30.9684 11.0719ZM31 17.6748C32.8321 17.6748 34.6178 17.7506 36.3548 17.8789C37.55 19.6074 38.7179 21.4412 39.8308 23.3822C40.8087 25.0877 41.6936 26.7905 42.499 28.4721C41.6851 30.1761 40.7854 31.902 39.794 33.631C38.9213 35.153 38.01 36.5986 37.0837 37.9923C35.1217 38.1575 33.0886 38.2493 31 38.2493C28.8611 38.2493 26.7824 38.152 24.7768 37.9791C23.8659 36.6054 22.97 35.1817 22.1113 33.684C21.1222 31.9589 20.2268 30.2362 19.4141 28.5357C20.2302 26.8257 21.1296 25.0934 22.1244 23.3583C23.2315 21.4275 24.396 19.6043 25.5847 17.8842C27.3403 17.7531 29.1468 17.6748 31 17.6748ZM39.8229 18.218C42.0438 18.497 44.1291 18.8845 46.0698 19.3494C45.4939 21.2502 44.7846 23.2357 43.9252 25.2846C43.3672 24.2015 42.7893 23.1146 42.1648 22.0256C41.4081 20.7057 40.6199 19.4475 39.8229 18.218ZM22.0323 18.2392C21.2521 19.4457 20.4845 20.6795 19.7431 21.9726C19.1106 23.0756 18.5207 24.1771 17.9564 25.274C17.1044 23.2374 16.3993 21.2632 15.8276 19.3733C17.7538 18.9075 19.8269 18.5214 22.0323 18.2392ZM48.7353 20.0701C49.6904 20.3611 50.6127 20.6647 51.4588 20.9975C54.0322 22.0096 56.0679 23.2081 57.3872 24.4341C58.7066 25.6601 59.2792 26.8292 59.2792 27.9634C59.2792 29.0976 58.7066 30.2668 57.3872 31.4927C56.0679 32.7187 54.0322 33.9172 51.4588 34.9293C50.5186 35.2991 49.4856 35.6344 48.4117 35.9521C47.6456 33.5661 46.6678 31.0769 45.504 28.5357C46.8421 25.6183 47.923 22.7737 48.7353 20.0701ZM13.2199 20.0834C14.023 22.76 15.09 25.5763 16.4091 28.4642C15.2378 31.0202 14.2551 33.5235 13.4857 35.923C12.4496 35.6136 11.4516 35.2874 10.5412 34.9293C7.96775 33.9172 5.93212 32.7187 4.61277 31.4927C3.29342 30.2668 2.72082 29.0976 2.72082 27.9634C2.72082 26.8292 3.29342 25.6601 4.61277 24.4341C5.93212 23.2081 7.96775 22.0096 10.5412 20.9975C11.3742 20.6699 12.2811 20.3705 13.2199 20.0834ZM31 21.7314C27.2956 21.7314 24.2637 24.7844 24.2637 28.5145C24.2637 32.2447 27.2956 35.2976 31 35.2976C34.7044 35.2976 37.7363 32.2447 37.7363 28.5145C37.7363 24.7844 34.7044 21.7314 31 21.7314ZM17.9879 31.7233C18.5547 32.8257 19.1442 33.9319 19.7799 35.0406C20.2773 35.9081 20.7852 36.7525 21.3008 37.5816C19.4915 37.329 17.7716 37.0092 16.1565 36.6304C16.6701 35.0464 17.2846 33.4022 17.9879 31.7233ZM43.9594 31.7233C44.6656 33.4061 45.2804 35.053 45.7961 36.641C44.1759 37.0193 42.4507 37.3381 40.636 37.5896C41.1584 36.7503 41.6743 35.8953 42.178 35.0168C42.809 33.9162 43.3962 32.8176 43.9594 31.7233ZM15.3803 39.2642C17.8186 39.8458 20.4614 40.2926 23.2638 40.5837C25.1346 43.3083 27.0835 45.7565 29.0449 47.8967C28.1678 48.7578 27.2985 49.566 26.4478 50.2628C24.2575 52.0569 22.1813 53.275 20.4509 53.8399C18.7205 54.4048 17.429 54.3303 16.467 53.771C15.505 53.2117 14.7966 52.1232 14.4172 50.3317C14.0378 48.5403 14.0483 46.1225 14.4961 43.3155C14.6993 42.0421 15.0029 40.6785 15.3803 39.2642ZM46.575 39.2748C46.9555 40.6977 47.26 42.0663 47.4644 43.3473C47.9126 46.1567 47.9238 48.5775 47.5433 50.3741C47.1629 52.1708 46.4513 53.2701 45.4804 53.8346C44.5094 54.399 43.2056 54.4727 41.4702 53.9061C39.7348 53.3396 37.6576 52.1194 35.4654 50.3238C34.6085 49.6219 33.7332 48.8072 32.8498 47.9391C34.8244 45.7905 36.7871 43.3299 38.6704 40.589C41.4799 40.2998 44.1301 39.8557 46.575 39.2748ZM26.7793 40.8619C28.1626 40.9378 29.5642 40.9891 31 40.9891C32.3884 40.9891 33.7444 40.9409 35.0839 40.8699C33.7147 42.73 32.319 44.4211 30.929 45.9439C29.5397 44.4179 28.1467 42.7237 26.7793 40.8619Z" fill="#242424" fill-opacity="0.4"/>
</svg>
