<svg width="91" height="68" viewBox="0 0 91 68" fill="none" xmlns="http://www.w3.org/2000/svg">
<path d="M78.0749 39.0855C74.9052 39.1019 72.1582 39.8639 69.8557 40.9979C69.0138 39.3178 68.1611 37.8391 68.0177 36.7395C67.8508 35.4568 67.6567 34.6911 67.8581 33.1616C68.0595 31.632 68.9449 29.4675 68.9304 29.306C68.9177 29.1445 68.7326 28.3661 66.9037 28.3516C65.0748 28.3389 63.5108 28.7036 63.3257 29.1863C63.1407 29.6689 62.7887 30.7557 62.571 31.8897C62.2498 33.548 58.9204 39.4629 57.028 42.5565C56.4093 41.3481 55.8831 40.2848 55.7743 39.443C55.6074 38.1602 55.4132 37.3945 55.6146 35.865C55.816 34.3355 56.7014 32.1709 56.6869 32.0094C56.6742 31.848 56.4891 31.0696 54.6602 31.0551C52.8313 31.0424 51.2673 31.4071 51.0823 31.8897C50.8972 32.3723 50.7013 33.5009 50.3275 34.5931C49.9519 35.6854 45.5248 45.5502 44.3654 48.1067C43.7739 49.4094 43.2605 50.4563 42.8976 51.1712L42.8958 51.1675C42.8958 51.1675 42.874 51.2147 42.8341 51.2964C42.5238 51.9042 42.3388 52.2416 42.3388 52.2416C42.3388 52.2416 42.3406 52.2471 42.3442 52.2543C42.0974 52.7007 41.8344 53.1162 41.7037 53.1162C41.613 53.1162 41.4298 51.9259 41.7436 50.2948C42.4023 46.8729 43.9844 41.535 43.9699 41.3517C43.9626 41.2574 44.2638 40.3284 42.9357 39.8403C41.6457 39.3686 41.1848 40.156 41.0669 40.1578C40.9526 40.1597 40.8673 40.4354 40.8673 40.4354C40.8673 40.4354 42.3061 34.4335 38.1239 34.4335C35.5112 34.4335 31.8897 37.2929 30.1044 39.8839C28.9794 40.4971 26.5699 41.8126 24.0135 43.2169C23.0319 43.7558 22.0303 44.3073 21.0796 44.8317C21.0143 44.7609 20.9508 44.6884 20.8837 44.6176C15.8143 39.2089 6.44478 35.3842 6.84213 28.1139C6.98728 25.4704 7.90536 18.5104 24.8481 10.0681C38.7263 3.15164 49.8376 5.05493 51.7572 9.27338C54.5006 15.2989 45.8187 26.4991 31.4071 28.1139C25.9149 28.729 23.0246 26.6008 22.3043 25.8079C21.5477 24.9732 21.4352 24.9351 21.1522 25.093C20.6913 25.3488 20.9834 26.0855 21.1522 26.5245C21.5822 27.644 23.3476 29.6308 26.3595 30.6178C29.0085 31.4869 35.455 31.9641 43.2532 28.9486C51.9858 25.5702 58.8043 16.1735 56.803 8.31901C54.7655 0.330273 41.5205 -2.29514 28.9849 2.15736C21.5241 4.80817 13.4483 8.96856 7.64046 14.399C0.734912 20.8582 -0.364606 26.4792 0.0889904 28.827C1.70198 37.1732 13.2034 42.6073 17.8101 46.6352C17.5833 46.7604 17.3692 46.8783 17.1751 46.9854C14.8653 48.1284 6.09823 52.717 3.90464 57.565C1.41712 63.0644 4.30018 67.0107 6.21072 67.5424C12.1256 69.188 18.1966 66.2269 21.4588 61.3607C24.7211 56.4964 24.3219 50.1624 22.825 47.2702C22.8069 47.2339 22.7851 47.1995 22.767 47.1632C23.3639 46.8094 23.9717 46.4519 24.5741 46.0981C25.7498 45.4087 26.9038 44.7646 27.9053 44.2184C27.3447 45.7534 26.9346 47.5932 26.7205 50.2513C26.4701 53.3738 27.7493 57.409 29.424 58.9966C30.1606 59.6951 31.0478 59.7115 31.6103 59.7115C33.5589 59.7115 34.448 58.0912 35.426 56.1734C36.6271 53.822 37.6921 51.0859 37.6921 51.0859C37.6921 51.0859 36.3549 58.4795 39.9982 58.4795C41.3245 58.4795 42.6599 56.7576 43.255 55.8813C43.2568 55.8904 43.2568 55.8958 43.2568 55.8958C43.2568 55.8958 43.2913 55.8396 43.3584 55.7234C43.4963 55.513 43.5744 55.3787 43.5744 55.3787C43.5744 55.3787 43.578 55.3642 43.5816 55.3406C44.115 54.4153 45.298 52.3033 47.0725 48.8197C49.3641 44.32 51.5631 38.6846 51.5631 38.6846C51.5631 38.6846 51.7681 40.0635 52.4376 42.3405C52.8313 43.6814 53.6696 45.1637 54.33 46.5844C53.7984 47.3228 53.4718 47.7456 53.4718 47.7456C53.4718 47.7456 53.4755 47.7529 53.4809 47.7674C53.0563 48.3316 52.5791 48.9395 52.0802 49.5346C50.2712 51.6901 48.1158 54.1504 47.8273 54.8616C47.488 55.6981 47.5678 56.3149 48.2246 56.8084C48.7036 57.1695 49.5582 57.2258 50.4509 57.1659C52.0766 57.057 53.2214 56.6524 53.7857 56.4075C54.6657 56.0972 55.6908 55.6073 56.6524 54.8997C58.4269 53.5952 59.4974 51.7282 59.3958 49.2552C59.3395 47.8926 58.9041 46.5427 58.3543 45.2671C58.5158 45.0349 58.6773 44.8027 58.8388 44.565C61.6366 40.4735 63.8066 35.9793 63.8066 35.9793C63.8066 35.9793 64.0116 37.3582 64.6811 39.6353C65.0204 40.7892 65.6899 42.0466 66.2905 43.2804C63.6596 45.4177 62.0285 47.9016 61.4606 49.5309C60.4137 52.5446 61.2338 53.9109 62.7724 54.2211C63.4691 54.3627 64.4543 54.0433 65.1946 53.7294C66.1163 53.4246 67.223 52.9148 68.2572 52.1546C70.0317 50.85 71.739 49.0229 71.6356 46.5499C71.5885 45.425 71.2836 44.3073 70.87 43.2332C73.0998 42.3043 75.9883 41.7872 79.6661 42.2172C87.5569 43.1389 89.1045 48.0649 88.8088 50.1261C88.513 52.189 86.8583 53.3212 86.3049 53.6641C85.7515 54.007 85.5828 54.125 85.63 54.379C85.6971 54.7491 85.9529 54.7346 86.4247 54.6548C87.0742 54.5459 90.5669 52.9783 90.7175 49.1717C90.9062 44.3491 86.2759 39.042 78.0749 39.0855ZM17.2603 59.5881C14.6476 62.4385 10.9953 63.5162 9.42944 62.609C7.73844 61.6293 8.40795 57.4308 11.6158 54.4062C13.5699 52.5628 16.0937 50.8645 17.7684 49.8176C18.1494 49.589 18.7082 49.2515 19.3886 48.8433C19.5011 48.7798 19.5646 48.7435 19.5646 48.7435L19.5628 48.7399C19.6934 48.6619 19.8295 48.5802 19.9674 48.4967C21.134 52.8041 20.0037 56.5962 17.2603 59.5881ZM36.2987 46.6443C35.3878 48.8633 33.4827 54.5405 32.3234 54.2357C31.3273 53.9744 30.7213 49.658 32.1238 45.4123C32.8296 43.275 34.3373 40.7203 35.2246 39.7278C36.6507 38.133 38.2219 37.6104 38.6029 38.2582C39.091 39.0819 36.8702 45.2526 36.2987 46.6443ZM52.0294 54.1504C51.6429 54.3518 51.2891 54.4788 51.1258 54.3808C51.0043 54.3082 51.2855 54.0433 51.2855 54.0433C51.2855 54.0433 53.2523 51.9259 54.0288 50.9625C54.4788 50.4019 55.0032 49.736 55.5711 48.9921C55.5765 49.0665 55.5783 49.1409 55.5783 49.2134C55.5711 51.7499 53.1216 53.4609 52.0294 54.1504ZM64.1477 51.3871C63.8592 51.182 63.9082 50.5198 64.8535 48.4586C65.2254 47.6494 66.0727 46.285 67.5478 44.9823C67.7184 45.5175 67.8236 46.031 67.82 46.51C67.8 49.7015 65.523 50.8936 64.1477 51.3871Z" fill="#242424" fill-opacity="0.4"/>
</svg>
