<svg width="68" height="68" viewBox="0 0 68 68" fill="none" xmlns="http://www.w3.org/2000/svg">
<path d="M66.381 0H1.61905C0.723714 0 0 0.725333 0 1.61905V66.381C0 67.2747 0.723714 68 1.61905 68H66.381C67.2763 68 68 67.2747 68 66.381V1.61905C68 0.725333 67.2763 0 66.381 0ZM40.4762 36.3395H32.381V61.5238H25.9048V36.3395H17.8095V30.7619H40.4762V36.3395ZM42.2911 60.0861V53.3541C42.2911 53.3541 45.968 56.1259 50.3799 56.1259C54.7918 56.1259 54.6218 53.2408 54.6218 52.8457C54.6218 48.6589 42.1211 48.6589 42.1211 39.3833C42.1211 26.7693 60.3354 31.7463 60.3354 31.7463L60.1088 37.7432C60.1088 37.7432 57.0536 35.7065 53.6034 35.7065C50.1532 35.7065 48.9082 37.3466 48.9082 39.1C48.9082 43.6252 61.5222 43.1735 61.5222 52.2807C61.5238 66.3081 42.2911 60.0861 42.2911 60.0861Z" fill="#242424" fill-opacity="0.4"/>
</svg>
