<svg width="500" height="500" viewBox="0 0 500 500" fill="none" xmlns="http://www.w3.org/2000/svg">
<path fill-rule="evenodd" clip-rule="evenodd" d="M33.877 228.953C20.9601 144.608 95.4788 142.906 147.882 152.962C200.285 163.017 289.603 185.457 325.946 172.502C354.662 151.501 352.077 149.644 426.922 122.565C334.454 151.497 243.825 119.069 184.798 117.137C113.779 114.812 -6.48167 130.79 33.877 228.953Z" fill="#83AB53"/>
<path fill-rule="evenodd" clip-rule="evenodd" d="M458.795 322.178C471.697 406.37 397.266 408.068 344.925 398.031C292.584 387.994 203.372 365.595 167.071 378.526C138.389 399.49 140.971 401.343 66.2153 428.373C158.575 399.493 249.095 431.862 308.053 433.791C378.988 436.111 499.106 420.163 458.795 322.178Z" fill="#83AB53"/>
<path fill-rule="evenodd" clip-rule="evenodd" d="M67.4004 430.268C279.549 311.136 194.213 179.38 430.044 120.874C233.199 218.265 328.429 347.228 67.4004 430.268Z" fill="#83AB53"/>
<path d="M123.304 156.303C36.0809 219.89 7.09929 333.804 34.6948 473.161C118.68 474.276 223.736 473.514 306 439.5C270 439.5 225.5 427.433 205.949 427.433C134.583 455.244 67.7225 463.58 54.8665 451.647C33.7823 432.077 49.5991 247.802 174.002 179.844C181.176 175.925 188.392 172.246 195.629 168.781C181.5 168.781 139 156.303 123.304 156.303Z" fill="#79A148"/>
<path d="M475.376 26.5332C447.031 88.832 321.324 87.9259 218.912 114.168C244 118 278 124 313.942 126.581C386.413 106.537 445.799 95.1926 462.322 60.9947C454.63 185.039 416.384 275.771 335.531 350.309C323.204 361.675 309.597 372.148 295.218 381.723C329.5 385 354.5 395.276 376.335 395.276C419.402 344.23 474.864 296.973 475.376 26.5332Z" fill="#79A148"/>
</svg>
